<?xml version="1.0" encoding="UTF-8" standalone="no"?>
<!DOCTYPE svg PUBLIC "-//W3C//DTD SVG 1.1//EN" "http://www.w3.org/Graphics/SVG/1.1/DTD/svg11.dtd">
<svg width="100%" height="100%" viewBox="0 0 161 41" version="1.1" xmlns="http://www.w3.org/2000/svg" xmlns:xlink="http://www.w3.org/1999/xlink" xml:space="preserve" xmlns:serif="http://www.serif.com/" style="fill-rule:evenodd;clip-rule:evenodd;stroke-linejoin:round;stroke-miterlimit:2;">
    <g>
        <path d="M55.667,14.224L55.667,5.782L80.338,5.782L80.338,14.224L67.225,26.448L80.338,26.448L80.338,34.676L55.667,34.676L55.667,26.448L67.669,14.224L55.667,14.224ZM106.23,5.782L106.23,14.224L93.339,26.448L106.23,26.448L106.23,34.676L81.449,34.676L81.449,26.448L93.451,14.224L81.449,14.224L81.449,5.782L106.23,5.782ZM13.669,0L24.67,0L24.67,15.003C26.56,9.224 31.449,5.334 37.672,5.334C41.45,5.334 44.229,6.779 45.896,9.446L46.007,9.446L46.451,5.779L54.563,5.779L54.563,34.671L46.451,34.671L46.118,31.226L46.007,31.226C44.34,33.894 41.562,35.339 37.783,35.339C31.449,35.339 26.448,31.338 24.67,25.449C24.003,34.671 17.003,41.117 6.667,41.117L0,41.117L0,31.226L6.667,31.226C10.891,31.226 13.669,27.116 13.669,22.781L13.669,0ZM32.672,20.336C32.672,23.67 35.449,26.448 38.784,26.448C42.117,26.448 44.896,23.67 44.896,20.336C44.896,17.002 42.117,14.224 38.784,14.224C35.449,14.224 32.672,17.002 32.672,20.336Z" style="fill:url(#_Linear1);"/>
        <path d="M123.95,16.59L115.6,16.59L115.6,5.793L107.405,5.793L107.405,34.676L115.601,34.676L115.601,24.214L123.951,24.214L123.951,34.672L132.148,34.672L132.148,5.826L123.951,5.826L123.95,16.59ZM145.835,18.77L145.829,18.77C145.811,18.771 145.793,18.777 145.774,18.777C145.756,18.777 145.738,18.771 145.72,18.77L141.492,18.77L141.492,12.134L145.829,12.134L145.829,12.147C147.399,12.181 148.664,13.648 148.664,15.458C148.664,17.268 147.402,18.732 145.835,18.77M156.943,14.713C156.943,9.813 153.194,5.815 147.963,5.815L141.483,5.815L141.483,5.813L133.316,5.813L133.316,34.667L141.482,34.667L141.482,25.014L144.813,25.014L149.773,34.677L158.914,34.677L152.606,22.13C155.351,20.502 156.943,17.874 156.943,14.713M156.597,5.785C156.597,5.785 156.597,5.785 156.597,5.785C156.56,5.785 156.529,5.816 156.529,5.853C156.529,5.853 156.529,5.854 156.529,5.854L156.529,6.248C156.529,6.284 156.557,6.317 156.597,6.317L157.115,6.317L157.115,8.247C157.115,8.284 157.147,8.317 157.183,8.317L157.617,8.317C157.655,8.315 157.685,8.285 157.686,8.247L157.686,6.317L158.202,6.317C158.24,6.317 158.272,6.285 158.272,6.247L158.272,5.854C158.272,5.816 158.24,5.784 158.202,5.784L156.597,5.784L156.597,5.785ZM160.89,5.806C160.887,5.774 160.854,5.748 160.826,5.748L160.767,5.748C160.749,5.748 160.717,5.763 160.706,5.785L159.867,7.347L159.86,7.347L159.021,5.785C159.01,5.763 158.977,5.748 158.959,5.748L158.902,5.748C158.869,5.749 158.842,5.774 158.836,5.806L158.427,8.237C158.42,8.284 158.452,8.317 158.496,8.317L158.923,8.317C158.957,8.317 158.986,8.292 158.992,8.258L159.151,7.141L159.158,7.141L159.769,8.312C159.78,8.334 159.809,8.352 159.83,8.352L159.896,8.352C159.913,8.352 159.947,8.334 159.957,8.312L160.565,7.142L160.572,7.142L160.735,8.258C160.739,8.288 160.771,8.316 160.804,8.316L161.231,8.316C161.274,8.316 161.306,8.284 161.299,8.237L160.89,5.807L160.89,5.806Z" style="fill:rgb(159,165,170);"/>
    </g>
    <defs>
        <linearGradient id="_Linear1" x1="0" y1="0" x2="1" y2="0" gradientUnits="userSpaceOnUse" gradientTransform="matrix(136.461,61.9687,-61.9687,136.461,15.7348,0)"><stop offset="0" style="stop-color:rgb(108,7,174);stop-opacity:1"/><stop offset="1" style="stop-color:rgb(1,174,223);stop-opacity:1"/></linearGradient>
    </defs>
</svg>
